<svg width="32" height="33" viewBox="0 0 32 33" fill="none" xmlns="http://www.w3.org/2000/svg">
<path d="M16 8.191C11.4184 8.191 7.691 11.9184 7.691 16.5C7.691 21.0816 11.4184 24.8058 16 24.8058C20.5816 24.8058 24.3058 21.0784 24.3058 16.5C24.309 11.9184 20.5816 8.191 16 8.191ZM16 21.6381C13.1656 21.6381 10.8619 19.3344 10.8619 16.5C10.8619 13.6656 13.1656 11.3619 16 11.3619C18.8344 11.3619 21.1381 13.6656 21.1381 16.5C21.1381 19.3344 18.8344 21.6381 16 21.6381ZM22.7915 0.5H9.20849C4.13185 0.5 0 4.63185 0 9.70849V23.2915C0 28.3681 4.13185 32.5 9.20849 32.5H22.7915C27.8681 32.5 32 28.3681 32 23.2915V9.70849C32 4.63185 27.8714 0.5 22.7915 0.5ZM28.8324 23.2915C28.8324 26.6209 26.1209 29.3291 22.7915 29.3291H9.20849C5.87907 29.3291 3.17088 26.6209 3.17088 23.2915V9.70849C3.17088 6.37907 5.87907 3.67088 9.20849 3.67088H22.7915C26.1209 3.67088 28.8291 6.37907 28.8291 9.70849V23.2915H28.8324ZM24.4222 5.79019C23.2251 5.79019 22.2479 6.7641 22.2479 7.96451C22.2479 9.16168 23.2218 10.1388 24.4222 10.1388C25.6194 10.1388 26.5966 9.16491 26.5966 7.96451C26.5966 6.7641 25.6194 5.79019 24.4222 5.79019Z" fill="#1B1A1A"/>
</svg>
