<svg width="156" height="137" viewBox="0 0 156 137" fill="none" xmlns="http://www.w3.org/2000/svg">
<path fill-rule="evenodd" clip-rule="evenodd" d="M78 0.166748C121.078 0.166748 156 30.6114 156 68.1667C156 105.722 121.078 136.167 78 136.167C34.9218 136.167 0 105.722 0 68.1667C0 30.6114 34.9218 0.166748 78 0.166748ZM81.2297 52.307C80.9881 52.162 80.6793 52.127 80.4022 52.2135L62.9219 57.663C62.2077 57.8859 61.7324 58.4681 61.7326 59.1199V79.7336H58.1176V82.8334H97.8824V79.7336H94.2674V65.352C94.2676 64.6846 93.7695 64.092 93.0311 63.8811L81.615 60.6186V52.942C81.6151 52.6891 81.4712 52.4521 81.2297 52.307ZM78 56.2603V79.7336H65.3476V60.2063L78 56.2603ZM81.615 63.8858L90.6524 66.4695V79.7336H81.615V63.8858Z" fill="#403E3B"/>
</svg>
