<svg width="157" height="137" viewBox="0 0 157 137" fill="none" xmlns="http://www.w3.org/2000/svg">
<path fill-rule="evenodd" clip-rule="evenodd" d="M78.6667 0.166748C121.745 0.166748 156.667 30.6114 156.667 68.1667C156.667 105.722 121.745 136.167 78.6667 136.167C35.5885 136.167 0.666695 105.722 0.666695 68.1667C0.666695 30.6114 35.5885 0.166748 78.6667 0.166748ZM80.8017 55.731L67.1234 57.0548C64.0864 68.5282 61.8038 75.3677 55.7255 81.5463L58.7239 84.1563C65.8833 77.1858 68.0261 69.1872 70.5881 60.4848L79.2241 59.6498L88.4597 67.6951L87.5011 75.2179C77.5111 77.4496 68.327 79.3164 60.3272 85.553L63.3255 88.1667C70.4162 82.8719 78.2698 80.8853 91.4409 78.2379L92.9604 66.3227L80.8017 55.731ZM77.7625 68.9682C76.6833 67.9947 75.085 67.6043 73.582 67.947C72.0791 68.2897 70.9054 69.3121 70.512 70.6213C70.1186 71.9305 70.5668 73.3229 71.6843 74.2631C73.3768 75.6616 76.0387 75.6314 77.6868 74.1952C79.3349 72.759 79.3685 70.4402 77.7625 68.9682ZM86.1213 49.7734C85.8333 49.5232 85.4079 49.4361 85.0222 49.5483C84.6364 49.6604 84.3564 49.9527 84.2987 50.3033L83.843 53.0836L95.9995 63.6733L99.1677 63.2428C99.568 63.1889 99.8996 62.9436 100.025 62.6082C100.151 62.2728 100.05 61.9043 99.763 61.655L86.1213 49.7734Z" fill="#403E3B"/>
</svg>
