<svg width="157" height="137" viewBox="0 0 157 137" fill="none" xmlns="http://www.w3.org/2000/svg">
<path fill-rule="evenodd" clip-rule="evenodd" d="M78.3334 0.166748C121.412 0.166748 156.333 30.6114 156.333 68.1667C156.333 105.722 121.412 136.167 78.3334 136.167C35.2552 136.167 0.333374 105.722 0.333374 68.1667C0.333374 30.6114 35.2552 0.166748 78.3334 0.166748ZM68.4771 49.5001L59.9804 58.8334V86.8334H76.9739V58.8334L68.4771 49.5001ZM96.0915 53.2335H83.3464C82.1733 53.2335 81.2223 54.0691 81.2223 55.1V84.9667C81.2223 85.9977 82.1733 86.8334 83.3464 86.8334H96.0915C97.2647 86.8334 98.2157 85.9977 98.2157 84.9667V79.3668H93.9674V75.6334H98.2157V71.9001H91.8431V68.1667H98.2157V64.4333H93.9674V60.7001H98.2157V55.1C98.2157 54.0691 97.2647 53.2335 96.0915 53.2335ZM72.7255 79.3668V83.1H64.2288V79.3668H72.7255Z" fill="#403E3B"/>
</svg>
