<svg width="172" height="49" viewBox="0 0 172 49" fill="none" xmlns="http://www.w3.org/2000/svg">
<path fill-rule="evenodd" clip-rule="evenodd" d="M71.3231 0.195321C71.4013 0.274428 71.4206 0.390828 71.3809 0.547911C71.3424 0.899372 71.2642 1.44747 71.1463 2.18994C76.0897 2.11196 79.9143 2.28826 82.6212 2.7177C82.8956 2.75725 82.9534 2.91433 82.7981 3.18782C82.3662 3.93142 81.5806 4.28288 80.4437 4.24333C77.5803 4.1258 74.4018 4.18456 70.9105 4.41962C70.3222 11.0691 70.0286 18.5978 70.0286 27.0057C70.0286 34.1253 70.2825 39.777 70.7926 43.9606C75.1477 43.843 75.6318 43.956 78.2208 44.3866C78.5348 44.425 78.613 44.5821 78.4566 44.8556C78.0247 45.5981 77.2595 45.9699 76.1611 45.9699C72.6301 45.9315 71.8502 46.1292 67.8511 46.5417C65.0376 46.8333 62.3885 47.2073 59.6045 48.108C59.3687 48.186 59.2122 48.186 59.1329 48.108C59.0944 48.03 59.0944 47.873 59.1329 47.639C59.5251 46.0739 60.271 45.1347 61.3694 44.8228C63.8009 44.1188 65.5318 44.1143 68.6151 44.0193C68.2625 43.5888 68.0472 43.0814 67.9689 42.4937C67.6538 39.7171 67.4985 35.8646 67.4985 30.9373C67.4985 20.1427 67.9882 11.3618 68.9687 4.59592C65.0455 4.90895 61.476 5.49547 58.2589 6.35548C57.9846 6.43458 57.8078 6.43458 57.7296 6.35548C57.6117 6.2775 57.5924 6.12155 57.6706 5.88649C58.0617 4.40041 58.7883 3.52007 59.8482 3.24658C61.8092 2.73804 64.9866 2.38658 69.3813 2.18994C69.6942 1.17398 70.244 0.509488 71.0284 0.195321C71.1848 0.156898 71.2834 0.156898 71.3231 0.195321ZM15.9669 1.25241C19.3006 1.21286 21.7729 2.79726 23.3814 6.00447C24.5977 8.38897 25.1271 10.9905 24.9707 13.8067C24.7734 17.171 23.7147 19.126 21.7933 19.673C21.5576 19.7521 21.4 19.7702 21.3229 19.7318C21.2436 19.6538 21.2436 19.4786 21.3229 19.2051C21.714 17.6467 21.9112 15.9504 21.9112 14.1186C21.9112 11.0797 21.4 8.48729 20.3809 6.3435C19.2825 4.00533 17.8508 2.87523 16.0848 2.95208C13.5739 3.03232 10.9849 5.21792 8.31652 9.51342C5.37495 14.357 3.84466 19.8832 3.7279 26.0919C3.64855 31.1299 4.55086 35.2028 6.43369 38.3071C8.31652 41.4115 10.867 42.9247 14.084 42.8456C16.6731 42.8061 18.939 41.6827 20.8808 39.4734C22.8168 37.2706 25.181 33.8344 25.2321 29.3439C25.3801 21.7066 25.9762 15.6085 27.0179 11.0484C27.2922 9.83697 27.8216 9.09336 28.6071 8.81988C28.8429 8.74077 28.9801 8.74077 29.0197 8.81988C29.0197 8.85943 28.9993 8.97583 28.9608 9.17134C27.9791 14.6478 27.4894 22.1957 27.4894 31.8162V36.6858C28.3192 32.6581 29.4868 29.2938 30.991 26.5952C31.3469 25.9307 31.7618 25.5984 32.2368 25.5984C32.553 25.5984 32.9101 25.7555 33.3046 26.0674C34.0958 26.6935 34.4925 27.7897 34.4925 29.3537C34.4132 36.2756 34.9425 39.9122 36.0806 40.2648C36.5522 40.4219 37.0612 40.0004 37.6109 39.0036C37.892 38.4917 38.1199 37.9199 38.299 37.2893C38.2457 36.7886 38.2106 36.2575 38.1992 35.6891C38.1596 32.9124 38.4724 30.4872 39.1401 28.4146C39.4144 27.5546 39.9245 27.0461 40.6704 26.889C40.8268 26.889 40.9651 26.967 41.083 27.1241C40.5718 29.5481 40.3178 31.9925 40.3178 34.4561C40.3178 38.6804 40.7883 40.9497 41.7291 41.2627C42.2789 41.4582 42.9364 40.9689 43.7015 39.7958C44.4667 38.6228 45.0051 37.1356 45.3191 35.3365C45.3293 35.2867 45.3406 35.2427 45.352 35.2031C45.0572 33.3814 44.9065 31.2399 44.9065 28.7661C44.9065 25.2854 45.2397 21.4137 45.9074 17.151C46.8879 11.2451 48.1824 8.29212 49.7909 8.29212C50.2999 8.29212 50.7919 8.60516 51.2623 9.2301C52.3222 10.5602 52.8504 12.7707 52.8504 15.8592C52.8504 18.9094 52.3607 22.0194 51.3802 25.1871C50.3215 28.4723 49.0054 30.8195 47.4377 32.2287C47.7506 38.173 48.7515 41.1452 50.4393 41.1452C51.1829 41.1452 51.9685 40.5869 52.7926 39.4737C53.5113 38.5007 54.0871 37.3006 54.5371 35.897C54.1608 33.9318 53.9681 31.5631 53.9681 28.7661C53.9681 25.2854 54.3014 21.4137 54.969 17.151C55.9495 11.2451 57.2429 8.29212 58.8526 8.29212C59.3627 8.29212 59.8535 8.60516 60.3239 9.2301C61.3827 10.5602 61.9132 12.7707 61.9132 15.8592C61.9132 18.9094 61.4223 22.0194 60.4418 25.1871C59.3819 28.4723 58.0681 30.8195 56.4993 32.2287C56.8133 38.173 57.8131 41.1452 59.4998 41.1452C60.2446 41.1452 61.0301 40.5869 61.8542 39.4737C62.6783 38.3572 63.3256 36.9604 63.796 35.2788C63.9139 34.9262 64.0318 34.8878 64.1485 35.1602C64.3446 35.5128 64.3843 36.2168 64.2664 37.2723C64.1485 38.6024 63.7563 39.7958 63.0898 40.8513C62.3042 42.1803 61.284 42.846 60.0303 42.846C59.6767 42.846 59.323 42.7872 58.9705 42.6708C57.21 42.1747 55.9201 40.6389 55.0892 38.0837C54.9044 39.0906 54.5553 40.0151 54.0282 40.8513C53.2426 42.1803 52.2236 42.846 50.9676 42.846C50.615 42.846 50.2625 42.7872 49.9088 42.6708C48.0804 42.1555 46.7564 40.5213 45.9312 37.7854C45.8269 39.0533 45.5061 40.1439 44.9665 41.057C44.2603 42.2504 43.3773 42.846 42.3186 42.846C42.0431 42.846 41.7495 42.7872 41.4355 42.6708C40.3099 42.2685 39.4802 41.3983 38.9406 40.067C38.5064 41.2141 37.7504 41.7893 36.6689 41.7893C36.3946 41.7893 36.1192 41.7317 35.846 41.6142C33.8838 40.9497 32.7264 39.4432 32.3739 37.0972C32.1381 35.4935 32.0202 32.6378 32.0202 28.531C31.9409 27.9852 31.8003 27.9253 31.602 28.3559C29.5718 32.6977 28.3781 37.4497 28.0188 42.6109C27.9803 43.0415 27.7887 43.1985 27.443 43.081C26.2153 42.6493 25.5443 41.6537 25.4298 40.0896C25.3449 39.057 25.283 37.9219 25.244 36.6847C24.5206 38.5501 23.4786 40.1837 22.3227 41.3787C20.4399 43.3349 18.0651 44.3905 15.2029 44.5475C11.4361 44.743 8.16009 43.3937 5.37495 40.4995C2.27582 37.2539 0.705851 32.7753 0.66731 27.0638C0.627635 20.064 2.31436 13.9434 5.72862 8.70201C8.8663 3.81321 12.2794 1.33039 15.9669 1.25241ZM128.791 13.2777C128.946 13.2392 129.045 13.2392 129.085 13.2777C129.123 13.3172 129.123 13.4347 129.085 13.6302C128.809 15.0383 128.516 17.033 128.202 19.6141C131.771 19.5361 134.929 19.7192 137.677 20.1611C137.872 20.2018 137.912 20.3238 137.794 20.525C137.402 21.0911 136.832 21.3556 136.088 21.316C133.381 21.1985 130.692 21.1985 128.025 21.316C127.672 24.6882 127.456 27.9068 127.379 30.9682C127.22 37.6358 127.868 40.9684 129.32 40.9684C129.909 40.9684 130.536 40.4994 131.203 39.5603C131.764 38.7704 132.199 37.7273 132.51 36.4367C132.56 36.0649 132.612 35.683 132.673 35.2784C133.104 32.4622 133.359 30.5263 133.439 29.4697C132.222 28.8447 131.653 27.7305 131.732 26.1257C131.771 25.0318 132.007 24.1514 132.438 23.4869C132.791 22.9389 133.182 22.6642 133.615 22.6642C134.556 22.6642 135.027 24.4826 135.027 28.1203C136.948 28.239 138.676 27.2603 140.206 25.1866C140.442 24.8352 140.735 24.8352 141.088 25.1866C141.676 25.8138 141.971 26.4195 141.971 27.0061C141.971 27.2807 141.912 27.5734 141.794 27.8864C140.382 30.9761 139.675 34.2421 139.675 37.6832C139.675 40.2644 140.206 41.5561 141.265 41.5561C142.616 41.5561 143.79 39.9423 144.787 36.7272C144.763 36.3927 144.744 36.0502 144.737 35.6886C144.697 32.912 145.011 30.4879 145.679 28.4142C145.952 27.5542 146.462 27.0456 147.208 26.8885C147.364 26.8885 147.503 26.9676 147.621 27.1236C147.109 29.5488 146.855 31.9932 146.855 34.4568C146.855 38.6811 147.326 40.9503 148.268 41.2622C148.816 41.4589 149.474 40.9684 150.239 39.7954C150.703 39.0845 151.072 38.2437 151.37 37.3035C151.188 36.5622 151.091 35.7711 151.091 34.9269C151.091 34.1833 151.17 33.4216 151.327 32.6373C151.758 30.2133 152.483 28.2966 153.504 26.8885C154.446 25.6375 155.465 25.0114 156.564 25.0114C157.073 25.0114 157.564 25.1685 158.036 25.4804C159.369 26.4195 160.036 27.7689 160.036 29.5284C160.036 30.1556 159.957 30.7998 159.801 31.4643C159.407 33.1075 158.614 34.4172 157.418 35.3959C156.221 36.3734 154.955 36.9023 153.622 36.9792C153.857 39.2089 154.465 40.4994 155.445 40.852C155.72 40.9684 156.035 41.0272 156.387 41.0272C157.525 41.0272 158.673 40.5096 159.831 39.4733C160.662 38.7274 161.335 37.8019 161.853 36.7012C161.808 36.5215 161.753 36.3022 161.683 36.0412C161.369 34.789 161.468 33.8906 161.978 33.3414C162.213 33.1075 162.409 33.5177 162.566 34.5743C163.585 29.2934 164.998 25.8138 166.802 24.1322C167.155 23.7796 167.528 23.6033 167.92 23.6033C168.392 23.6033 168.842 23.8384 169.275 24.3074C169.509 24.5809 169.47 24.8352 169.157 25.0702C168.607 25.5392 168.333 26.302 168.333 27.3575C168.333 29.0007 168.94 31.1919 170.157 33.929C170.941 35.7677 171.333 37.3125 171.333 38.5624C171.333 39.8541 170.922 40.8803 170.099 41.6431C169.275 42.4059 168.352 42.7879 167.332 42.7879C165.332 42.7879 163.723 41.4374 162.507 38.7399C162.428 38.9354 162.272 39.1501 162.036 39.3851C162.005 39.4089 161.979 39.4213 161.952 39.4371C161.63 40.0248 161.24 40.548 160.772 40.9989C159.733 41.9945 158.506 42.494 157.094 42.494C156.387 42.494 155.681 42.3573 154.975 42.0838C153.994 41.6928 153.151 40.93 152.445 39.7954C152.355 39.6609 152.275 39.5208 152.194 39.3818C152.03 39.9931 151.802 40.5537 151.504 41.0566C150.798 42.2499 149.915 42.8455 148.856 42.8455C148.581 42.8455 148.286 42.7879 147.973 42.6703C146.673 42.2059 145.764 41.1221 145.246 39.4179C144.592 42.016 143.421 43.3145 141.736 43.3145C140.206 43.3145 139.047 42.4737 138.263 40.7932C137.635 39.5015 137.322 38.0358 137.322 36.3927C137.322 34.2025 137.773 31.7977 138.676 29.177C137.734 29.6087 136.655 29.8223 135.438 29.8223H134.968C134.928 30.5681 134.792 32.3559 134.556 35.1834C134.359 37.5408 134.262 39.3874 134.262 40.7209C134.262 41.7425 134.321 42.6455 134.438 43.4309C134.477 43.6275 134.438 43.7451 134.321 43.7846C134.241 43.8626 134.105 43.8626 133.909 43.7846C132.909 43.4648 132.354 42.589 132.231 41.1696C131.591 42.0883 130.779 42.5528 129.791 42.5528C129.515 42.5528 129.222 42.5133 128.908 42.4353C127.299 42.0431 126.201 40.9096 125.613 39.0326C125.142 37.4289 124.965 34.8478 125.083 31.2891C125.161 28.0435 125.495 24.7176 126.083 21.316C124.632 21.4324 123.18 21.6291 121.729 21.9026C121.533 21.941 121.415 21.9026 121.376 21.785C121.298 21.707 121.298 21.6087 121.376 21.4912C121.533 20.5916 122.121 20.0842 123.141 19.9656C123.848 19.8887 124.906 19.8107 126.319 19.7316C126.789 17.424 127.181 15.7424 127.495 14.6858C127.692 13.9817 128.122 13.5127 128.791 13.2777ZM99.4114 8.17414C99.5678 8.13572 99.6665 8.13572 99.705 8.17414C99.7844 8.2137 99.8025 8.31201 99.764 8.46684C98.3912 15.5469 97.7428 23.1547 97.8222 31.2891C97.8607 33.6352 97.9401 35.4535 98.058 36.7452C98.2937 39.4835 98.7438 40.9888 99.4114 41.2622C99.8818 41.4589 100.43 40.9888 101.058 39.8541C101.378 39.2767 101.651 38.602 101.879 37.8335C101.768 36.9656 101.706 36.0039 101.706 34.9269C101.706 32.1887 102.059 29.5104 102.764 26.8885C103.078 25.7155 103.627 25.0702 104.413 24.9527C104.609 24.9143 104.746 24.9143 104.824 24.9527C104.864 24.9922 104.864 25.1098 104.824 25.3053C104.315 27.9248 104.06 30.7998 104.06 33.929C104.06 36.4718 104.274 38.3285 104.707 39.5015C105.06 40.4802 105.59 40.9684 106.295 40.9684C107.394 40.9684 108.159 38.9941 108.591 35.0433L109.415 27.7101C109.611 26.5766 110.219 25.8907 111.239 25.6567C111.435 25.6183 111.572 25.6375 111.65 25.7155C111.69 25.7551 111.69 25.8726 111.65 26.0681C111.219 29.2346 111.004 32.1096 111.004 34.6919C111.004 38.7206 111.552 40.7334 112.651 40.7334C113.083 40.7334 113.543 40.2158 114.034 39.1795C114.37 38.4698 114.631 37.6482 114.829 36.7272C114.784 36.5441 114.725 36.3158 114.652 36.0412C114.338 34.789 114.437 33.8906 114.946 33.3414C115.181 33.1075 115.378 33.5177 115.535 34.5743C116.555 29.2934 117.967 25.8138 119.771 24.1322C120.125 23.7796 120.498 23.6033 120.89 23.6033C121.36 23.6033 121.81 23.8384 122.243 24.3074C122.478 24.5809 122.438 24.8352 122.126 25.0702C121.576 25.5392 121.301 26.302 121.301 27.3575C121.301 29.0007 121.909 31.1919 123.125 33.929C123.91 35.7677 124.302 37.3125 124.302 38.5624C124.302 39.8541 123.89 40.8803 123.068 41.6431C122.243 42.4059 121.321 42.7879 120.302 42.7879C118.402 42.7879 116.856 41.5685 115.664 39.1365C115.306 41.2928 114.363 42.3765 112.828 42.3765C111.219 42.3765 110.062 41.2622 109.356 39.0326C108.846 40.7153 108.041 41.8691 106.943 42.494C106.472 42.7675 105.962 42.9043 105.414 42.9043C104.55 42.9043 103.844 42.572 103.295 41.9075C103.032 41.5775 102.803 41.1877 102.606 40.7356C102.066 42.181 101.236 42.9043 100.118 42.9043C99.8422 42.9043 99.5678 42.8658 99.2935 42.7879C97.4107 42.1618 96.2137 40.4022 95.7036 37.5081C95.1538 40.9888 93.7618 42.7291 91.5253 42.7291C89.9168 42.7291 88.6812 42.0217 87.8186 40.6102C87.7415 40.4859 87.6712 40.3548 87.6021 40.2237C87.5511 40.3401 87.4966 40.452 87.4366 40.5582C86.9072 41.4973 86.1908 41.9663 85.2885 41.9663C82.9738 41.9663 81.5818 40.4214 81.1102 37.3306C80.8756 35.7293 80.7577 32.8724 80.7577 28.7656C80.6783 28.2187 80.5412 28.1599 80.3462 28.5893C78.384 32.8927 77.1677 37.5081 76.6973 42.4353C76.6576 42.8658 76.4808 43.041 76.1679 42.963C74.9516 42.7291 74.3044 42.103 74.2262 41.0859C74.0289 39.0913 73.9904 36.5689 74.1083 33.5177C74.2262 30.2325 74.4608 27.6717 74.8145 25.833C75.0106 24.8555 75.5207 24.2486 76.3436 24.0136C76.5397 23.9751 76.6769 23.9751 76.7562 24.0136C76.8344 24.0531 76.8537 24.1707 76.8152 24.3662C76.2654 28.0831 76.0886 32.3062 76.2858 37.0379C77.187 32.7357 78.3443 29.3329 79.7579 26.8298C80.149 26.1257 80.5616 25.7743 80.9935 25.7743C81.66 25.7743 82.229 26.1664 82.6995 26.9473C83.0531 27.535 83.23 28.4142 83.23 29.5872C83.1506 36.5102 83.68 40.1287 84.8181 40.4407C85.3667 40.5977 85.9165 40.1389 86.4662 39.0619C86.6249 38.75 86.7564 38.4189 86.8732 38.0799C86.7587 37.473 86.7009 36.8266 86.7009 36.1372C86.7009 35.0772 86.8188 33.9403 87.0534 32.7232C87.5624 30.133 88.3672 28.1136 89.4668 26.6614C90.564 25.2092 91.6829 24.4826 92.8209 24.4826C93.8797 24.4826 94.8013 25.1482 95.5857 26.4783C96.0572 19.4378 96.9006 13.7094 98.1169 9.28842C98.2733 8.74145 98.7052 8.37078 99.4114 8.17414ZM93.5101 26.1845C92.8368 26.0297 92.0535 26.7721 91.1626 28.4142C90.2705 30.0573 89.6663 31.9932 89.35 34.2229C89.231 35.0829 89.172 35.8852 89.172 36.6266C89.172 38.1149 89.3795 39.2778 89.7955 40.1175C90.2115 40.9594 90.6774 41.4001 91.192 41.4374C92.0637 41.5176 92.9547 40.5378 93.8672 38.5048C94.8557 36.2367 95.3114 33.6567 95.2331 30.7603C95.1923 29.4313 94.9747 28.317 94.5791 27.4163C94.2617 26.6749 93.9058 26.2636 93.5101 26.1845ZM166.391 27.6514C165.527 29.021 164.527 32.0712 163.389 36.804C164.016 38.133 164.821 39.1896 165.803 39.9705C166.665 40.6746 167.469 41.0272 168.215 41.0272C169.039 41.0272 169.45 40.5785 169.45 39.679C169.45 38.8958 168.921 37.273 167.861 34.8083C166.802 32.3446 166.273 30.3896 166.273 28.9419C166.273 28.4729 166.312 28.0435 166.391 27.6514ZM119.36 27.6514C118.496 29.021 117.496 32.0712 116.359 36.804C116.986 38.133 117.79 39.1896 118.771 39.9705C119.634 40.6746 120.438 41.0272 121.184 41.0272C122.008 41.0272 122.419 40.5785 122.419 39.679C122.419 38.8958 121.89 37.273 120.831 34.8083C119.771 32.3446 119.242 30.3896 119.242 28.9419C119.242 28.4729 119.28 28.0435 119.36 27.6514ZM157.329 26.5947C156.701 26.4399 155.995 27.0852 155.211 28.5306C154.348 30.0958 153.818 31.9152 153.622 33.9878C153.543 34.8874 153.524 35.5519 153.564 35.9824C154.975 35.6694 156.113 34.6726 156.976 32.9899C157.682 31.6214 158.036 30.1556 158.036 28.5893C158.036 27.379 157.8 26.7122 157.329 26.5947ZM50.2036 10.697C49.7705 10.4619 49.2616 11.8508 48.6733 14.8614C48.0849 17.8742 47.6916 21.1605 47.4966 24.7181C47.4173 26.2833 47.3787 28.2383 47.3787 30.5844C49.6538 26.9873 50.7919 21.8058 50.7919 15.0388C50.7919 12.339 50.5946 10.8936 50.2036 10.697ZM59.2652 10.697C58.8322 10.4619 58.3232 11.8508 57.7349 14.8614C57.1466 17.8742 56.7532 21.1605 56.5583 24.7181C56.4789 26.2833 56.4404 28.2383 56.4404 30.5844C58.7154 26.9873 59.8535 21.8058 59.8535 15.0388C59.8535 12.339 59.6563 10.8936 59.2652 10.697ZM40.8471 22.7238C41.5918 22.6063 42.0237 23.0165 42.1416 23.9556C42.2198 24.5037 42.1019 24.9727 41.7891 25.3637C41.474 25.7558 41.1022 25.9898 40.6703 26.0677C40.2384 26.1457 39.8859 26.0587 39.6115 25.8044C39.3361 25.5502 39.2375 25.1682 39.3168 24.6597C39.4732 23.4866 39.9845 22.8413 40.8471 22.7238ZM148.488 22.7238C149.231 22.6063 149.663 23.0165 149.781 23.9556C149.859 24.5037 149.741 24.9727 149.428 25.3637C149.114 25.7558 148.741 25.9898 148.311 26.0677C147.879 26.1457 147.525 26.0587 147.251 25.8044C146.977 25.5502 146.878 25.1682 146.957 24.6597C147.113 23.4866 147.624 22.8413 148.488 22.7238Z" fill="white"/>
</svg>
