<svg width="294" height="26" viewBox="0 0 294 26" fill="none" xmlns="http://www.w3.org/2000/svg">
<path fill-rule="evenodd" clip-rule="evenodd" d="M46.549 7.32966C48.5597 7.32966 50.1801 7.84456 51.4101 8.87435C52.6401 9.90413 53.2979 11.3079 53.3835 13.0856H49.7256C49.6614 12.2835 49.3405 11.6439 48.763 11.167C48.1854 10.69 47.4046 10.4515 46.4206 10.4515C45.458 10.4515 44.72 10.6358 44.2066 11.0044C43.6932 11.3729 43.4366 11.8607 43.4366 12.4678C43.4366 12.9447 43.6077 13.3458 43.9499 13.671C44.2922 13.9962 44.7093 14.2509 45.2013 14.4352C45.6933 14.6195 46.4206 14.8525 47.3832 15.1344C48.6667 15.4813 49.7202 15.8335 50.5438 16.1913C51.3674 16.549 52.0786 17.0747 52.6776 17.7685C53.2765 18.4622 53.5867 19.3836 53.6081 20.5326C53.6081 21.5516 53.33 22.4621 52.7738 23.2643C52.2177 24.0664 51.4315 24.6951 50.4154 25.1504C49.3994 25.6057 48.2068 25.8333 46.8378 25.8333C45.4473 25.8333 44.2013 25.5759 43.0996 25.0691C41.998 24.5596 41.1263 23.8659 40.4846 22.9879C39.8428 22.1098 39.5006 21.1288 39.4578 20.0448H43.244C43.3082 20.8036 43.6665 21.4378 44.3189 21.9472C44.9714 22.4567 45.7896 22.7114 46.7736 22.7114C47.8004 22.7114 48.5972 22.5109 49.1641 22.1098C49.7309 21.7088 50.0144 21.1939 50.0144 20.5652C50.0144 19.8931 49.6988 19.3944 49.0678 19.0693C48.4368 18.7441 47.4367 18.3863 46.0677 17.9961C44.7414 17.6275 43.6612 17.2698 42.8269 16.923C41.9926 16.5761 41.2707 16.0449 40.661 15.3295C40.0514 14.6141 39.7466 13.671 39.7466 12.5003C39.7466 11.5464 40.0247 10.6738 40.5808 9.88245C41.137 9.09114 41.9338 8.46785 42.9713 8.01258C44.0088 7.5573 45.2013 7.32966 46.549 7.32966ZM140.691 7.32966C142.359 7.32966 143.846 7.69822 145.151 8.43533C146.456 9.17244 147.472 10.2077 148.199 11.541C148.927 12.8743 149.29 14.4081 149.29 16.1425C149.29 16.8146 149.247 17.4216 149.162 17.9636H135.653C135.76 19.3944 136.282 20.5435 137.226 21.4107C138.167 22.2779 139.322 22.7114 140.691 22.7114C142.659 22.7114 144.049 21.8768 144.862 20.2074H148.809C148.274 21.8551 147.306 23.2047 145.905 24.2561C144.504 25.3076 142.766 25.8333 140.691 25.8333C139.001 25.8333 137.488 25.4485 136.151 24.6789C134.814 23.9093 133.766 22.8253 133.006 21.4269C132.247 20.0286 131.867 18.408 131.867 16.5652C131.867 14.7225 132.236 13.1019 132.974 11.7036C133.712 10.3052 134.75 9.22664 136.086 8.46785C137.423 7.70906 138.958 7.32966 140.691 7.32966ZM102.828 7.32912C104.518 7.32912 106.048 7.70852 107.417 8.46731C108.786 9.2261 109.866 10.3101 110.657 11.7193C111.449 13.1285 111.845 14.7436 111.845 16.5647C111.845 18.3858 111.438 20.0009 110.625 21.4101C109.812 22.8193 108.705 23.9087 107.304 24.6783C105.903 25.448 104.358 25.8328 102.668 25.8328C100.999 25.8328 99.4912 25.448 98.1435 24.6783C96.7959 23.9087 95.737 22.8247 94.9669 21.4264C94.1969 20.028 93.8118 18.4075 93.8118 16.5647C93.8118 14.7436 94.2076 13.1285 94.999 11.7193C95.7905 10.3101 96.8708 9.2261 98.2398 8.46731C99.6088 7.70852 101.138 7.32912 102.828 7.32912ZM286.684 7.23156C288.802 7.23156 290.492 7.76814 291.754 8.84128C293.016 9.91443 293.711 11.3616 293.84 13.1827H289.54C289.476 12.4672 289.179 11.8981 288.658 11.4754C288.133 11.0526 287.433 10.8412 286.556 10.8412C285.74 10.8412 285.117 10.993 284.679 11.2965C284.24 11.6 284.021 12.0228 284.021 12.5648C284.021 13.1718 284.32 13.6325 284.919 13.9469C285.516 14.2612 286.449 14.581 287.711 14.9062C288.994 15.2314 290.053 15.5674 290.888 15.9143C291.722 16.2612 292.444 16.7978 293.053 17.524C293.663 18.2503 293.976 19.2096 294 20.402C294 21.4426 293.717 22.3749 293.15 23.1987C292.583 24.0225 291.77 24.6675 290.711 25.1336C289.652 25.5997 288.417 25.8328 287.005 25.8328C285.55 25.8328 284.246 25.5672 283.09 25.0361C281.933 24.5049 281.021 23.7841 280.347 22.8735C279.673 21.963 279.304 20.9548 279.24 19.8492H283.764C283.847 20.5429 284.187 21.1174 284.775 21.5727C285.363 22.028 286.096 22.2556 286.973 22.2556C287.826 22.2556 288.494 22.0822 288.978 21.7353C289.46 21.3884 289.7 20.944 289.7 20.402C289.7 19.8167 289.404 19.3776 288.818 19.085C288.23 18.7923 287.294 18.4725 286.01 18.1256C284.684 17.8004 283.596 17.4644 282.754 17.1175C281.909 16.7707 281.181 16.2395 280.572 15.5241C279.962 14.8086 279.657 13.8439 279.657 12.6298C279.657 11.6326 279.938 10.722 280.507 9.89817C281.074 9.07434 281.887 8.42395 282.943 7.94699C284.005 7.47004 285.251 7.23156 286.684 7.23156ZM195.653 7.23156C196.98 7.23156 198.143 7.50256 199.137 8.04455C200.132 8.58655 200.929 9.26946 201.525 10.0933V7.52424H206.052V25.5401H201.525V22.906C200.948 23.7515 200.153 24.4507 199.137 25.0035C198.119 25.5564 196.947 25.8328 195.621 25.8328C194.127 25.8328 192.76 25.4426 191.53 24.6621C190.3 23.8816 189.33 22.7814 188.61 21.3613C187.896 19.9413 187.538 18.3099 187.538 16.4671C187.538 14.646 187.896 13.0309 188.61 11.6217C189.33 10.2125 190.3 9.12854 191.53 8.36975C192.76 7.61096 194.137 7.23156 195.653 7.23156ZM78.1863 1.47559V10.2884C78.8067 9.42122 79.657 8.71121 80.7372 8.15837C81.8175 7.60554 83.0208 7.32912 84.347 7.32912C85.9086 7.32912 87.3204 7.70852 88.5825 8.46731C89.8446 9.2261 90.8392 10.3047 91.5665 11.703C92.2938 13.1014 92.6575 14.7002 92.6575 16.4997C92.6575 18.2991 92.2938 19.9088 91.5665 21.3288C90.8392 22.7488 89.8392 23.8545 88.5664 24.6458C87.2937 25.4371 85.8872 25.8328 84.347 25.8328C82.978 25.8328 81.764 25.5618 80.7051 25.0198C79.6463 24.4778 78.8067 23.7841 78.1863 22.9385V25.5401H74.5284V1.47559H78.1863ZM258.417 7.23102C260.107 7.23102 261.618 7.59958 262.955 8.33669C264.292 9.0738 265.332 10.1198 266.067 11.4748C266.808 12.8298 267.174 14.3853 267.174 16.1414C267.174 16.7918 267.134 17.3771 267.046 17.8975H254.051C254.158 19.1982 254.607 20.2172 255.398 20.9543C256.19 21.6914 257.163 22.06 258.321 22.06C259.99 22.06 261.174 21.3337 261.883 19.8812H266.725C266.214 21.6155 265.23 23.041 263.776 24.1575C262.319 25.2767 260.535 25.8322 258.417 25.8322C256.703 25.8322 255.169 25.4474 253.81 24.6778C252.452 23.9082 251.393 22.8188 250.636 21.4096C249.877 20.0004 249.497 18.3744 249.497 16.5316C249.497 14.6699 249.872 13.0331 250.62 11.6212C251.366 10.212 252.417 9.13071 253.765 8.36921C255.112 7.61313 256.663 7.23102 258.417 7.23102ZM4.5465 2.93924L9.16968 21.3454L14.1726 2.93924H18.2823L22.9323 21.2478L27.5875 2.93924H31.4994L24.8922 25.5404H20.753L16.0684 8.43506L11.0922 25.5404L6.9851 25.5729L0.666668 2.93924H4.5465ZM278.468 7.26462V12.045H277.28C275.871 12.045 274.804 12.381 274.09 13.0531C273.371 13.7252 273.013 14.8959 273.013 16.5652V25.5407H268.523V7.52478H273.013V10.3215C273.59 9.36756 274.344 8.61961 275.275 8.07762C276.208 7.53562 277.27 7.26462 278.468 7.26462ZM122.465 7.32939C123.856 7.32939 125.102 7.62207 126.203 8.20742C127.305 8.79278 128.166 9.65997 128.786 10.809C129.407 11.958 129.717 13.3455 129.717 14.9715V25.5404H126.091V15.5243C126.091 13.92 125.695 12.6897 124.904 11.8334C124.112 10.977 123.032 10.5488 121.663 10.5488C120.294 10.5488 119.209 10.977 118.406 11.8334C117.604 12.6897 117.203 13.92 117.203 15.5243V25.5404H113.545V7.62207H117.203V9.67081C117.802 8.93369 118.567 8.35918 119.497 7.94727C120.428 7.53535 121.417 7.32939 122.465 7.32939ZM217.824 7.26462V12.045H216.637C215.228 12.045 214.161 12.381 213.447 13.0531C212.728 13.7252 212.369 14.8959 212.369 16.5652V25.5407H207.88V7.52478H212.369V10.3215C212.947 9.36756 213.701 8.61961 214.632 8.07762C215.565 7.53562 216.626 7.26462 217.824 7.26462ZM59.93 1.47586V9.70333C60.5503 8.94453 61.3365 8.35918 62.2884 7.94727C63.2403 7.53535 64.2831 7.32939 65.4168 7.32939C66.7645 7.32939 67.9677 7.62207 69.0266 8.20742C70.0855 8.79278 70.9197 9.65997 71.5294 10.809C72.139 11.958 72.4439 13.3455 72.4439 14.9715V25.5404H68.8181V15.5243C68.8181 13.92 68.4223 12.6897 67.6308 11.8334C66.8394 10.977 65.7591 10.5488 64.3901 10.5488C63.021 10.5488 61.9354 10.977 61.1332 11.8334C60.3311 12.6897 59.93 13.92 59.93 15.5243V25.5404H56.2721V1.47586H59.93ZM36.8919 7.6218V25.5401H33.234V7.6218H36.8919ZM179.354 2.84114C181.086 2.84114 182.562 3.14466 183.782 3.75169C185.001 4.35872 185.915 5.1934 186.525 6.2557C187.135 7.31801 187.437 8.52124 187.437 9.86538C187.437 11.0794 187.156 12.2176 186.589 13.2799C186.022 14.3423 185.135 15.1986 183.926 15.849C182.717 16.4994 181.193 16.8246 179.354 16.8246H175.6V25.5398H171.107V2.84114H179.354ZM225.432 3.06905V7.52424H229.411V11.264H225.432V19.9793C225.432 20.5863 225.576 21.0253 225.865 21.2963C226.154 21.5673 226.64 21.7028 227.325 21.7028H229.411V25.5401H226.587C222.801 25.5401 220.908 23.6757 220.908 19.9467V11.264H218.79V7.52424H220.908V3.06905H225.432ZM241.216 7.26381C243.334 7.26381 245.048 7.9413 246.35 9.29629C247.655 10.6513 248.308 12.5428 248.308 14.971V25.5398H243.818V15.5888C243.818 14.158 243.462 13.0577 242.757 12.2881C242.053 11.5185 241.088 11.1336 239.869 11.1336C238.628 11.1336 237.649 11.5185 236.935 12.2881C236.216 13.0577 235.858 14.158 235.858 15.5888V25.5398H231.366V7.52397H235.858V9.76782C236.457 8.98735 237.222 8.3749 238.155 7.93046C239.083 7.48603 240.104 7.26381 241.216 7.26381ZM83.5448 10.5486C82.625 10.5486 81.7533 10.787 80.9298 11.264C80.1062 11.741 79.4431 12.4347 78.9404 13.3453C78.4377 14.2558 78.1863 15.329 78.1863 16.5647C78.1863 17.8004 78.4377 18.879 78.9404 19.8004C79.4431 20.7218 80.1062 21.421 80.9298 21.8979C81.7533 22.3749 82.625 22.6133 83.5448 22.6133C84.486 22.6133 85.3684 22.3695 86.192 21.8817C87.0156 21.3939 87.6787 20.6839 88.1814 19.7516C88.6841 18.8194 88.9354 17.7354 88.9354 16.4997C88.9354 15.2639 88.6841 14.1962 88.1814 13.2965C87.6787 12.3968 87.0156 11.7139 86.192 11.2477C85.3684 10.7816 84.486 10.5486 83.5448 10.5486ZM102.764 10.5486C101.823 10.5486 100.951 10.7762 100.149 11.2315C99.3468 11.6868 98.7104 12.3642 98.2398 13.264C97.7692 14.1637 97.5339 15.2639 97.5339 16.5647C97.5339 18.4942 98.0205 19.9847 98.9938 21.0361C99.9671 22.0876 101.192 22.6133 102.668 22.6133C103.609 22.6133 104.491 22.3857 105.315 21.9304C106.139 21.4752 106.807 20.7922 107.32 19.8817C107.834 18.9711 108.09 17.8655 108.09 16.5647C108.09 15.2639 107.844 14.1637 107.352 13.264C106.86 12.3642 106.208 11.6868 105.395 11.2315C104.582 10.7762 103.705 10.5486 102.764 10.5486ZM162.124 5.67062V11.9794H168.186V15.9468H162.124V22.2556H157.888V15.9468H151.824V11.9794H157.888V5.67062H162.124ZM196.811 11.2315C195.974 11.2315 195.204 11.4374 194.498 11.8494C193.795 12.2613 193.22 12.8629 192.784 13.6542C192.346 14.4455 192.126 15.3832 192.126 16.4671C192.126 17.5511 192.346 18.4996 192.784 19.3126C193.22 20.1256 193.8 20.7489 194.514 21.1825C195.234 21.6161 195.996 21.8329 196.811 21.8329C197.643 21.8329 198.423 21.6215 199.153 21.1987C199.878 20.776 200.456 20.169 200.883 19.3776C201.311 18.5863 201.525 17.6378 201.525 16.5322C201.525 15.4265 201.311 14.478 200.883 13.6867C200.456 12.8954 199.878 12.2884 199.153 11.8656C198.423 11.4429 197.643 11.2315 196.811 11.2315ZM140.531 10.4515C139.268 10.4515 138.188 10.858 137.29 11.671C136.391 12.484 135.857 13.5843 135.685 14.9718H145.472C145.451 13.606 144.969 12.5111 144.028 11.6873C143.084 10.8635 141.921 10.4515 140.531 10.4515ZM258.286 10.9708C257.174 10.9708 256.238 11.3122 255.479 11.9951C254.719 12.6781 254.254 13.6265 254.086 14.8406H262.522C262.5 13.6699 262.083 12.7323 261.27 12.0277C260.46 11.3231 259.463 10.9708 258.286 10.9708ZM179.161 6.54838H175.6V13.1499H179.161C180.402 13.1499 181.319 12.8626 181.921 12.2881C182.52 11.7136 182.819 10.906 182.819 9.86538C182.819 7.65405 181.6 6.54838 179.161 6.54838ZM35.095 0.5C35.7368 0.5 36.2823 0.727637 36.7315 1.18291C37.1807 1.63819 37.4053 2.20186 37.4053 2.87393C37.4053 3.54601 37.1807 4.10968 36.7315 4.56495C36.2823 5.02023 35.7368 5.24787 35.095 5.24787C34.4319 5.24787 33.8757 5.02023 33.4265 4.56495C32.9773 4.10968 32.7527 3.54601 32.7527 2.87393C32.7527 2.20186 32.9773 1.63819 33.4265 1.18291C33.8757 0.727637 34.4319 0.5 35.095 0.5Z" fill="#1B1A1A"/>
</svg>
