<svg width="171" height="28" viewBox="0 0 171 28" fill="none" xmlns="http://www.w3.org/2000/svg">
<path fill-rule="evenodd" clip-rule="evenodd" d="M9.14825 0.833252C13.3199 0.833252 16.6858 3.09407 16.6858 6.71879C16.6858 9.19553 15.2952 11.0255 14.7474 11.0255C14.2354 11.0255 11.6007 9.44662 11.6007 8.98059C11.6007 8.80081 12.1127 7.97524 12.1127 7.14966C12.1127 5.64212 11.0508 4.56545 9.22196 4.56545C7.42897 4.56545 6.14797 5.74959 6.14797 7.50822C6.14797 9.3753 8.19697 10.4881 10.8685 11.8159C11.0779 11.9216 11.2879 12.0276 11.4979 12.1343L12.127 12.4567C15.4741 14.1904 18.6262 16.1825 18.6262 19.8196C18.6262 24.4497 14.5272 27.4999 9.07553 27.4999C3.73241 27.4999 0 24.8796 0 20.1782C0 17.1631 1.90356 14.83 2.34185 14.83C2.92756 14.83 5.45269 16.5534 5.45269 17.0195C5.45269 17.3067 4.57413 18.2398 4.57413 19.8196C4.57413 22.1527 6.5504 23.7316 9.22196 23.7316C12.0021 23.7316 13.7592 22.1166 13.7592 19.9271C13.7592 17.845 11.9294 16.6609 7.90411 14.7587C4.39184 13.1075 1.39057 11.3489 1.39057 7.40075C1.39057 3.7047 4.64784 0.833252 9.14825 0.833252ZM124.45 0.833252C128.842 0.833252 131.623 3.77602 131.623 7.58052C131.623 11.3489 128.732 14.2555 125 15.2608C124.78 15.3331 124.487 15.3693 124.304 15.3693C123.828 15.3693 122.694 12.533 122.694 12.067C122.694 11.9234 122.803 11.8159 122.987 11.7436C125.548 10.7382 127.121 9.41145 127.121 7.40075C127.121 5.85804 126.17 4.74522 124.377 4.74522C120.645 4.74522 117.937 9.59024 117.937 14.7948C117.937 20.1059 121.45 23.5879 126.17 23.5879C129.583 23.5879 132.207 21.8847 133.618 19.5948C133.58 19.2252 133.562 18.8453 133.562 18.4556C133.562 13.4308 136.856 9.66147 141.393 9.66147C143.698 9.66147 145.308 10.488 146.443 11.4924L146.553 11.4562V10.9902C146.553 10.4519 146.918 10.1285 147.395 10.1285H150.212C150.76 10.1285 151.09 10.4519 151.09 11.0615C151.09 11.7435 150.688 16.948 150.688 19.7833C150.688 21.3984 151.346 22.7261 152.627 22.7261C154.415 22.7261 155.936 20.5171 156.8 18.5322L156.799 11.0258C156.799 10.4874 157.091 10.1289 157.641 10.1289H160.568C161.153 10.1289 161.483 10.4523 161.483 11.0619C161.483 13.0716 161.299 18.2401 161.299 19.604C161.299 21.4339 161.922 22.7265 163.422 22.7265C165.434 22.7265 167.154 20.1423 167.813 18.3124C167.887 18.1326 167.959 18.0251 168.178 18.0251C168.508 18.0251 170.667 18.9933 170.667 19.389C170.667 19.4965 170.631 19.6401 170.594 19.7476C169.569 22.834 166.862 26.6385 162.397 26.6385C159.971 26.6385 158.246 25.6152 157.397 23.7295C156.029 25.3198 154.058 26.6381 151.42 26.6381C148.785 26.6381 146.882 25.4178 146.882 23.3368V22.9772L146.736 22.942C145.821 24.9156 143.772 26.6381 140.588 26.6381C138.079 26.6381 136.081 25.4723 134.867 23.5185C132.869 25.773 129.692 27.4999 125.548 27.4999C118.12 27.4999 113.07 22.5113 113.07 14.8661C113.07 7.11351 117.68 0.833252 124.45 0.833252ZM72.8191 1.58643C73.4407 1.58643 73.7336 1.945 73.7336 2.55563C73.7336 4.9249 73.2584 16.0863 73.2584 19.8195C73.2584 21.4697 73.8431 22.7261 75.3074 22.7261C77.1901 22.7261 78.7751 20.2809 79.5526 18.5289L79.5514 11.0258C79.5514 10.4874 79.8443 10.1289 80.3931 10.1289H83.3207C83.9064 10.1289 84.2351 10.4523 84.2351 11.0619C84.2351 13.0716 84.0528 18.2401 84.0528 19.604C84.0528 21.4339 84.6744 22.7265 86.1746 22.7265C87.7325 22.7265 89.1145 21.1788 89.9654 19.6307C89.9027 19.1931 89.8713 18.7405 89.8713 18.2762C89.8713 13.3227 93.53 9.66186 98.9827 9.66186C104.215 9.66186 107.618 13.3227 107.618 17.989C107.618 22.2605 104.544 26.6385 98.4697 26.6385C95.3569 26.6385 92.9047 25.3809 91.4287 23.3496C89.9959 25.1867 87.9085 26.6385 85.1506 26.6385C82.7299 26.6385 81.0066 25.62 80.1555 23.7426C78.7238 25.3813 76.7096 26.6381 74.2087 26.6381C71.1716 26.6381 69.0499 25.239 69.0499 23.0857V22.7984L68.9034 22.7623C67.989 24.6645 65.9759 26.6381 62.8292 26.6381C60.2903 26.6381 58.3139 25.4863 57.0983 23.5918C55.6688 25.3221 53.6242 26.6387 50.9729 26.6387C48.0085 26.6387 46.1796 25.095 46.1796 22.9778C46.1796 22.798 46.1796 22.5108 46.2155 22.4033L46.0691 22.3672C45.0819 24.4853 43.0319 26.6387 39.7388 26.6387C37.379 26.6387 35.7621 25.5533 34.955 23.7088C33.5108 25.3496 31.3963 26.6385 28.4692 26.6385C24.4798 26.6385 21.7724 24.0543 21.7724 20.1785V13.7536H20.8211C20.2723 13.7536 20.0163 13.5738 20.0163 13.0355V11.0258C20.0163 10.6311 20.1986 10.3438 20.6747 10.3438H21.7724V6.25207C21.7724 5.64242 22.1021 5.28385 22.651 5.28385H25.4321C26.0168 5.28385 26.3097 5.64242 26.3097 6.25207V10.4161C27.4811 10.38 28.8707 10.3438 29.7492 10.3438C30.079 10.3438 30.335 10.5236 30.335 10.9183V13.1078C30.335 13.61 30.1158 13.7536 29.7134 13.7536C28.8707 13.7536 27.518 13.7175 26.3097 13.7175V18.3837C26.3097 21.1115 27.0418 22.7265 29.4205 22.7265C31.9977 22.7265 33.6556 20.1861 34.3601 18.4604L34.3598 11.0611C34.3598 10.4153 34.6895 10.1281 35.2743 10.1281H38.1291C38.7507 10.1281 39.0435 10.4876 39.0435 11.026C39.0435 13.2516 38.8612 16.9477 38.8612 19.3531C38.8612 21.6139 39.4091 22.7267 41.0567 22.7267C43.6177 22.7267 45.8131 17.7019 45.8131 12.2814V11.0611C45.8131 10.4876 46.0691 10.1281 46.6916 10.1281H49.5823C50.2039 10.1281 50.4968 10.4515 50.4968 11.0611C50.4968 11.6968 50.3398 13.9957 50.2316 16.3332L50.1993 17.0707C50.159 18.0508 50.1312 19.0073 50.1312 19.8191C50.1312 21.398 50.7896 22.7267 52.1443 22.7267C53.655 22.7267 54.9596 21.1483 55.7947 19.6633C55.7515 19.2606 55.7299 18.8453 55.7299 18.4194C55.7299 13.718 58.7671 9.66147 63.6709 9.66147C65.939 9.66147 67.989 10.7381 69.1226 11.5999L69.269 11.5647V2.51948C69.269 1.90983 69.5619 1.58643 70.1107 1.58643H72.8191ZM98.909 13.2514C96.1647 13.2514 94.6277 15.7281 94.6277 18.2401C94.6277 20.9679 96.2374 23.0499 98.7257 23.0499C101.397 23.0499 102.825 20.6806 102.825 17.8453C102.825 15.2973 101.507 13.2514 98.909 13.2514ZM65.1342 13.5744C62.4626 13.5744 60.4505 15.6916 60.4505 18.6705C60.4505 21.1473 61.8042 22.7261 63.7805 22.7261C67.0009 22.7261 68.7202 18.096 68.7202 15.1533C67.9522 14.4352 66.6343 13.5744 65.1342 13.5744ZM142.967 13.5744C140.295 13.5744 138.283 15.6916 138.283 18.7067C138.283 21.1111 139.637 22.7261 141.539 22.7261C144.979 22.7261 146.553 17.8811 146.553 15.1533C145.784 14.4352 144.467 13.5744 142.967 13.5744ZM81.967 2.44757C83.3207 2.44757 84.4553 3.20183 84.4553 4.74454C84.4553 6.2169 83.4671 7.25742 81.8206 7.25742C80.3931 7.25742 79.406 6.28822 79.406 4.78069C79.406 3.41677 80.4659 2.44757 81.967 2.44757ZM159.213 2.44757C160.568 2.44757 161.702 3.20183 161.702 4.74454C161.702 6.2169 160.715 7.25742 159.067 7.25742C157.641 7.25742 156.652 6.28822 156.652 4.78069C156.652 3.41677 157.713 2.44757 159.213 2.44757Z" fill="white"/>
</svg>
