<svg width="172" height="105" viewBox="0 0 172 105" fill="none" xmlns="http://www.w3.org/2000/svg">
<path fill-rule="evenodd" clip-rule="evenodd" d="M49.5276 84.758C50.1267 84.758 50.6953 84.8365 51.2361 84.9963C51.7793 85.1534 52.3074 85.3816 52.8227 85.6807V89.2983C52.4419 88.9662 52.023 88.6848 51.5737 88.449C51.1269 88.2158 50.642 88.1017 50.1267 88.1017C49.5428 88.1017 49.0859 88.264 48.7533 88.5885C48.4182 88.9104 48.2532 89.3667 48.2532 89.9473C48.2532 90.4644 48.3928 90.9055 48.6797 91.2832C48.9615 91.6559 49.3118 92.0134 49.7281 92.3556C50.1445 92.6978 50.5963 93.035 51.0888 93.3772C51.5788 93.7195 52.0332 94.1124 52.4495 94.5636C52.8659 95.0123 53.2162 95.5371 53.498 96.1328C53.7823 96.7311 53.9219 97.4562 53.9219 98.3054C53.9219 99.1344 53.8077 99.9101 53.5716 100.622C53.3406 101.34 52.9928 101.958 52.5231 102.483C52.0586 103.005 51.4874 103.419 50.8121 103.718C50.1394 104.017 49.3676 104.167 48.502 104.167C47.9689 104.167 47.4129 104.088 46.829 103.928C46.2477 103.771 45.7349 103.535 45.3033 103.218V99.6743C45.7349 99.976 46.1791 100.217 46.631 100.399C47.0778 100.582 47.5779 100.673 48.1288 100.673C48.7279 100.673 49.2331 100.491 49.652 100.126C50.0683 99.7605 50.2765 99.2586 50.2765 98.6274C50.2765 98.2623 50.2079 97.953 50.0734 97.6945C49.9439 97.4359 49.7713 97.2027 49.5631 96.9948C49.3549 96.7869 49.1214 96.5942 48.865 96.4193C48.6061 96.2469 48.3446 96.0669 48.0755 95.8844C47.5449 95.5168 47.0626 95.1543 46.631 94.7867C46.1944 94.4217 45.8288 94.0186 45.5293 93.5775C45.2297 93.1339 44.9987 92.6497 44.8438 92.1173C44.6839 91.5875 44.6052 90.979 44.6052 90.2971C44.6052 89.5467 44.7118 88.842 44.9301 88.1752C45.1459 87.5111 45.4582 86.9254 45.8669 86.4159C46.2731 85.9089 46.7859 85.5083 47.4053 85.2067C48.0196 84.9075 48.7279 84.758 49.5276 84.758ZM135.312 84.758C135.912 84.758 136.48 84.8365 137.021 84.9963C137.562 85.1534 138.092 85.3816 138.608 85.6807V89.2983C138.224 88.9662 137.81 88.6848 137.359 88.449C136.909 88.2158 136.424 88.1017 135.912 88.1017C135.325 88.1017 134.871 88.264 134.536 88.5885C134.203 88.9104 134.038 89.3667 134.038 89.9473C134.038 90.4644 134.178 90.9055 134.462 91.2832C134.744 91.6559 135.094 92.0134 135.51 92.3556C135.927 92.6978 136.379 93.035 136.871 93.3772C137.364 93.7195 137.815 94.1124 138.234 94.5636C138.651 95.0123 138.998 95.5371 139.283 96.1328C139.565 96.7311 139.709 97.4562 139.709 98.3054C139.709 99.1344 139.59 99.9101 139.356 100.622C139.125 101.34 138.775 101.958 138.308 102.483C137.843 103.005 137.272 103.419 136.597 103.718C135.922 104.017 135.152 104.167 134.287 104.167C133.754 104.167 133.195 104.088 132.611 103.928C132.033 103.771 131.522 103.535 131.088 103.218V99.6743C131.522 99.976 131.961 100.217 132.413 100.399C132.863 100.582 133.363 100.673 133.914 100.673C134.51 100.673 135.018 100.491 135.434 100.126C135.851 99.7605 136.059 99.2586 136.059 98.6274C136.059 98.2623 135.993 97.953 135.861 97.6945C135.729 97.4359 135.554 97.2027 135.348 96.9948C135.14 96.7869 134.906 96.5942 134.65 96.4193C134.391 96.2469 134.129 96.0669 133.863 95.8844C133.327 95.5168 132.847 95.1543 132.413 94.7867C131.979 94.4217 131.614 94.0186 131.314 93.5775C131.012 93.1339 130.784 92.6497 130.629 92.1173C130.469 91.5875 130.39 90.979 130.39 90.2971C130.39 89.5467 130.497 88.842 130.715 88.1752C130.931 87.5111 131.243 86.9254 131.652 86.4159C132.058 85.9089 132.571 85.5083 133.188 85.2067C133.804 84.9075 134.51 84.758 135.312 84.758ZM66.1154 84.7592C67.5472 84.7592 68.7276 85.1699 69.6618 85.9938C70.5935 86.8177 71.2612 87.8951 71.6597 89.2235L68.0346 90.6203C67.9863 90.3896 67.928 90.1311 67.862 89.8497C67.7985 89.5657 67.6919 89.3021 67.5497 89.0612C67.4075 88.8204 67.2248 88.6176 67.0014 88.4503C66.7754 88.2855 66.4886 88.2019 66.1382 88.2019C65.7219 88.1866 65.3665 88.2855 65.0619 88.501C64.7648 88.7165 64.511 89.008 64.3028 89.3731C64.0946 89.7407 63.9296 90.1564 63.8002 90.6203C63.6783 91.0868 63.5818 91.5507 63.5158 92.0172C63.4498 92.4836 63.4067 92.9323 63.3889 93.3633C63.3737 93.7993 63.3661 94.1618 63.3661 94.4635C63.3661 94.9452 63.3864 95.546 63.4295 96.2609C63.4701 96.9758 63.5818 97.6653 63.7672 98.3295C63.9499 98.9937 64.2343 99.5615 64.6278 100.025C65.0187 100.489 65.5569 100.725 66.2398 100.725C66.7043 100.725 67.0851 100.588 67.3771 100.312C67.6665 100.038 67.8924 99.701 68.0498 99.303C68.2097 98.9024 68.3138 98.4841 68.3621 98.043C68.4128 97.6019 68.4382 97.2141 68.4382 96.882H66.0621V93.3886H72.1598V94.8615C72.1598 95.8603 72.0811 96.9073 71.9237 98.005C71.7638 99.1027 71.4693 100.107 71.0352 101.012C70.6011 101.919 69.9893 102.67 69.1973 103.268C68.4077 103.869 67.3796 104.165 66.1154 104.165C65.2649 104.165 64.511 104.023 63.8535 103.742C63.196 103.46 62.6172 103.078 62.1171 102.593C61.617 102.112 61.1981 101.557 60.8554 100.923C60.5127 100.292 60.2334 99.6198 60.0176 98.9024C59.8018 98.1875 59.6445 97.46 59.5429 96.7197C59.4439 95.9795 59.3931 95.2595 59.3931 94.5624C59.3931 93.4824 59.4921 92.3645 59.6952 91.2085C59.8932 90.0525 60.2486 88.9953 60.7538 88.0396C61.2616 87.0839 61.9521 86.2955 62.8177 85.6795C63.6834 85.066 64.7801 84.7592 66.1154 84.7592ZM153.346 85.0581V88.5489H149.574V92.6431H152.899V96.1339H149.574V100.375H153.397V103.868H145.852V85.0581H153.346ZM4.41108 85.0604C5.01019 85.0604 5.69054 85.101 6.44959 85.1821C7.20609 85.2683 7.92706 85.4812 8.60741 85.8311C9.29284 86.1809 9.86656 86.7158 10.3311 87.4408C10.7982 88.1633 11.0318 89.1647 11.0318 90.4449C11.0318 91.4944 10.8211 92.44 10.3971 93.2791C9.97064 94.1182 9.29284 94.7951 8.35862 95.3122L11.6334 103.868H7.71128L4.43647 95.1855H4.38569V103.868H0.666626V85.0604H4.41108ZM31.9896 85.0589V93.4652H32.0378L35.14 85.0589H38.9352L35.4624 93.739L39.3845 103.869H35.4624L32.0378 94.2866H31.9896V103.869H28.268V85.0589H31.9896ZM81.8761 85.0604C82.4752 85.0604 83.153 85.101 83.9146 85.1821C84.6711 85.2683 85.3896 85.4812 86.0724 85.8311C86.7553 86.1809 87.3316 86.7158 87.7962 87.4408C88.2633 88.1633 88.4968 89.1647 88.4968 90.4449C88.4968 91.4944 88.2836 92.44 87.8596 93.2791C87.4357 94.1182 86.7553 94.7951 85.8237 95.3122L89.0959 103.868H85.1763L81.9015 95.1855H81.8507V103.868H78.1317V85.0604H81.8761ZM102.536 85.0601L107.057 103.868H103.084L102.386 100.699H98.6137L97.9384 103.868H94.2422L98.6137 85.0601H102.536ZM163.215 85.0594L167.863 96.4089L167.911 96.3607C167.792 95.9095 167.713 95.4431 167.673 94.9614C167.632 94.4797 167.609 93.9981 167.609 93.5164V85.0594H171.333V103.867H167.812L163.215 92.5176L163.164 92.5683L163.339 94.462L163.365 95.2352V103.867H159.64V85.0594H163.215ZM21.6236 85.0599V103.868H17.8995V85.0599H21.6236ZM116.127 85.0594L120.775 96.4089L120.823 96.3607C120.704 95.9095 120.625 95.4431 120.584 94.9614C120.541 94.4797 120.521 93.9981 120.521 93.5164V85.0594H124.245V103.867H120.724L116.127 92.5176L116.076 92.5683L116.251 94.462L116.276 95.2352V103.867H112.552V85.0594H116.127ZM100.462 89.8971H100.414L100.01 92.7414L99.2153 97.7558H101.835L100.886 92.7414L100.462 89.8971ZM5.15654 88.1248L4.8858 88.1278H4.38569V93.1397L5.03558 93.165C5.88602 93.165 6.49274 92.9115 6.86084 92.4045C7.2264 91.8975 7.40918 91.2536 7.40918 90.4702C7.40918 90.1382 7.36857 89.8238 7.28479 89.5221C7.20102 89.223 7.05886 88.9669 6.86084 88.7515C6.66029 88.5334 6.39882 88.3712 6.07133 88.2622C5.74893 88.1557 5.35037 88.1101 4.8858 88.1278L5.15654 88.1248ZM82.6229 88.1248L82.3534 88.1278H81.8507V93.1397L82.5006 93.165C83.351 93.165 83.9578 92.9115 84.3259 92.4045C84.6914 91.8975 84.8742 91.2536 84.8742 90.4702C84.8742 90.1382 84.8336 89.8238 84.7498 89.5221C84.666 89.223 84.5239 88.9669 84.3259 88.7515C84.1253 88.5334 83.8613 88.3712 83.5364 88.2622C83.214 88.1557 82.8154 88.1101 82.3534 88.1278L82.6229 88.1248ZM98.0882 79.9444C98.6061 79.9444 99.0376 80.132 99.388 80.5046C99.7383 80.8798 99.9109 81.3234 99.9109 81.8406C99.9109 82.34 99.7281 82.7659 99.3651 83.1259C98.997 83.4833 98.5553 83.6608 98.0374 83.6608C97.5399 83.6608 97.1083 83.4833 96.7402 83.1259C96.3746 82.7659 96.1919 82.34 96.1919 81.8406C96.1919 81.3082 96.3746 80.857 96.7402 80.4919C97.1083 80.1269 97.5576 79.9444 98.0882 79.9444ZM103.287 79.9444C103.803 79.9444 104.237 80.132 104.582 80.5046C104.935 80.8798 105.107 81.3234 105.107 81.8406C105.107 82.34 104.925 82.7659 104.557 83.1259C104.191 83.4833 103.752 83.6608 103.237 83.6608C102.736 83.6608 102.302 83.4833 101.934 83.1259C101.571 82.7659 101.386 82.34 101.386 81.8406C101.386 81.3082 101.571 80.857 101.934 80.4919C102.302 80.1269 102.754 79.9444 103.287 79.9444ZM87.984 0.166504C113.309 0.166504 133.748 20.4573 133.891 45.7447C133.923 51.6108 132.851 57.2209 130.874 62.3798C130.374 63.6981 129.808 64.9859 129.191 66.2382L122.565 61.0362L118.348 64.4535C118.006 64.7324 117.564 64.8591 117.122 64.8084L110.847 64.0758C110.816 64.0707 110.786 64.0682 110.755 64.0657C110.428 64.0479 110.103 64.124 109.824 64.2913C109.803 64.3014 109.781 64.3166 109.763 64.3293L104.477 67.7542C103.716 68.246 102.693 68.0305 102.203 67.2649L99.2935 62.755L96.6305 64.991L103.563 71.283C103.574 71.2932 103.581 71.3008 103.591 71.3109C104.399 72.0714 104.449 73.339 103.701 74.1603C102.947 74.9918 101.66 75.0552 100.824 74.3023C100.822 74.3023 100.822 74.3023 100.822 74.2998L98.3136 72.0233L94.1706 74.064C94.1655 74.0665 94.1579 74.0716 94.1503 74.0741C93.5106 74.3783 92.7515 74.2414 92.2616 73.7319L92.2489 73.7192L90.0251 71.3591C89.5554 70.8622 88.8268 70.7101 88.1973 70.9712L83.4424 72.9486C82.8306 73.2021 82.1249 73.0626 81.6527 72.5962L77.2381 68.2105C76.7633 67.7364 76.0424 67.6021 75.423 67.8683L70.3584 70.0738C69.8101 70.3095 69.1729 70.231 68.6982 69.8684L64.5298 66.654C63.9281 66.185 63.0828 66.1951 62.4887 66.6742L58.4472 69.9445C57.7517 70.5047 56.7388 70.4109 56.1625 69.7366C56.1498 69.7239 56.1422 69.7138 56.1346 69.7011L52.1185 64.74L47.7825 68.1471C47.1098 66.9379 46.4929 65.6932 45.9319 64.418C43.4542 58.7851 42.0808 52.5564 42.0808 46.0083C42.0808 20.6905 62.6334 0.166504 87.984 0.166504ZM72.5873 48.6727L55.3248 62.2252L56.7388 63.9718C56.7464 63.9769 56.754 63.9871 56.7591 63.9947C57.3303 64.6741 58.3406 64.778 59.0387 64.2254C59.0413 64.2228 59.0464 64.2203 59.0514 64.2152L62.4329 61.4824C63.0218 61.0033 63.8672 60.9957 64.4714 61.4596L69.2795 65.1735C69.7568 65.5385 70.394 65.6171 70.9423 65.3788L76.3369 63.0313C76.9537 62.7626 77.6722 62.8995 78.1494 63.3736L82.5971 67.7897C83.0693 68.2587 83.775 68.3956 84.3868 68.1421L89.2305 66.1267C89.8575 65.8681 90.5836 66.0202 91.0507 66.5095L91.0583 66.5171L93.1476 68.7327C93.1552 68.7403 93.1577 68.7454 93.1653 68.7505C93.6629 69.26 94.4296 69.3944 95.0693 69.08L81.4547 56.7215L77.9286 53.5223L72.5873 48.6727ZM111.601 52.4195L102.441 60.1109L103.416 61.6244C103.906 62.3874 104.927 62.608 105.691 62.1111L108.775 60.1109C108.79 60.1033 108.808 60.0906 108.821 60.083C109.108 59.9107 109.438 59.8321 109.765 59.8498L109.864 59.8574L115.891 60.5647C116.33 60.6179 116.772 60.4861 117.117 60.2098L119.283 58.4555L111.601 52.4195ZM87.984 33.4622C81.1475 33.4622 75.5651 38.9481 75.4255 45.7447L80.9876 50.792L83.8867 53.4234L89.4412 58.4682C95.6862 57.7457 100.55 52.4347 100.55 46.0083C100.55 39.0901 94.9119 33.4622 87.984 33.4622ZM71.9501 43.9726H63.8951C62.7705 43.9726 61.8541 44.8853 61.8541 46.0083C61.8541 47.1339 62.7705 48.044 63.8951 48.044H66.7891L71.9501 43.9954V43.9726ZM112.075 43.9726H106.061C104.934 43.9726 104.023 44.8853 104.023 46.0083C104.023 47.1339 104.934 48.044 106.061 48.044H112.075C112.639 48.044 113.149 47.8158 113.517 47.4482C113.888 47.0806 114.114 46.5686 114.114 46.0083C114.114 44.8853 113.203 43.9726 112.075 43.9726ZM106.46 27.558C105.663 26.762 104.371 26.762 103.579 27.558L99.3215 31.8043C98.5294 32.6003 98.5294 33.8881 99.3215 34.6841C100.121 35.4801 101.411 35.4801 102.208 34.6866L106.463 30.4353C107.257 29.6418 107.257 28.354 106.463 27.5605L106.46 27.558ZM72.3944 27.5605C71.5973 26.762 70.3076 26.762 69.5105 27.558C68.7159 28.354 68.7159 29.6418 69.508 30.4353L73.7627 34.6841C74.1587 35.0821 74.6842 35.2799 75.2046 35.2799C75.7251 35.2799 76.2455 35.0821 76.6466 34.6841C77.4412 33.8881 77.4412 32.6003 76.6466 31.8043L72.3944 27.5605ZM87.984 19.9173C86.8594 19.9173 85.9455 20.8274 85.9455 21.953V27.956C85.9455 28.5213 86.1765 29.0284 86.5446 29.3959C86.9127 29.7661 87.4204 29.9942 87.984 29.9942C89.1112 29.9942 90.0225 29.0816 90.0225 27.956V21.953C90.0225 20.8274 89.1112 19.9173 87.984 19.9173Z" fill="white"/>
</svg>
