<svg width="33" height="27" viewBox="0 0 33 27" fill="none" xmlns="http://www.w3.org/2000/svg">
<path d="M32.3334 3.57539C31.1559 4.09831 29.8907 4.44937 28.5633 4.61027C29.9199 3.79845 30.9584 2.51125 31.4484 0.979043C30.1796 1.73235 28.7717 2.27722 27.2798 2.57342C26.084 1.29719 24.3763 0.5 22.4895 0.5C18.862 0.5 15.922 3.43643 15.922 7.06399C15.922 7.57961 15.9805 8.08059 16.0902 8.55963C10.6344 8.28537 5.79652 5.6744 2.56032 1.69944C1.99718 2.6685 1.67174 3.79845 1.67174 5.00155C1.67174 7.27975 2.83092 9.28734 4.5898 10.4648C3.51472 10.4319 2.50181 10.1357 1.61688 9.64205V9.72616C1.61688 12.9076 3.8804 15.5588 6.88257 16.1622C6.33406 16.3121 5.75264 16.3925 5.15294 16.3925C4.72876 16.3925 4.3192 16.3523 3.92062 16.2755C4.75435 18.8828 7.17876 20.7807 10.0493 20.8356C7.80406 22.5945 4.97741 23.644 1.89845 23.644C1.36823 23.644 0.848972 23.6148 0.333374 23.5526C3.24047 25.4139 6.68876 26.5 10.3967 26.5C22.4712 26.5 29.0752 16.4986 29.0752 7.82461C29.0752 7.53938 29.0679 7.25781 29.0569 6.97623C30.3405 6.0474 31.4558 4.89184 32.3334 3.57539Z" fill="#1B1A1A"/>
</svg>
